<?xml version="1.0"?>
<svg width="600" height="600" viewBox="-100 -100 700 700" xmlns="http://www.w3.org/2000/svg">
	<g fill="#000000">
	<polygon points="0.847569,0.0984002 0.637856,0.138858 1.06804,0.0686674 0.847569,0.0984002 1.29563,0.0460154 1.52842,0.0285144 1.06804,0.0686674 1.7653,0.0150557 1.29563,0.0460154 1.52842,0.0285144 2.00555,0.00491206 1.7653,0.0150557 2.24857,-0.00249225 2.49379,-0.00766586 2.00555,0.00491206 2.74074,-0.0111351 2.24857,-0.00249225 2.49379,-0.00766586 2.9889,-0.0133774 2.74074,-0.0111351 3.23788,-0.0147791 3.48744,-0.0156285 2.9889,-0.0133774 3.73738,-0.0161292 3.23788,-0.0147791 3.48744,-0.0156285 3.98755,-0.0164186 3.73738,-0.0161292 4.23789,-0.0165824 4.48827,-0.0166753 3.98755,-0.0164186 4.73869,-0.0167291 4.23789,-0.0165824 4.48827,-0.0166753 4.98913,-0.0167629 4.73869,-0.0167291 5.23957,-0.0167845 5.48999,-0.0168004 4.98913,-0.0167629 5.74039,-0.016813 5.23957,-0.0167845 5.48999,-0.0168004 5.99075,-0.0168248 5.74039,-0.016813 6.2411,-0.0168345 6.49143,-0.0168434 5.99075,-0.0168248 6.74176,-0.0168517 6.2411,-0.0168345 6.49143,-0.0168434 6.99207,-0.0168607 6.74176,-0.0168517 7.24238,-0.0168683 7.49272,-0.016876 6.99207,-0.0168607 7.74322,-0.0168841 7.24238,-0.0168683 7.49272,-0.016876 7.99386,-0.0168935 7.74322,-0.0168841 8.24463,-0.016902 8.49535,-0.0169099 7.99386,-0.0168935 8.74599,-0.016917 8.24463,-0.016902 8.49535,-0.0169099 8.99655,-0.0169243 8.74599,-0.016917 9.24701,-0.0169297 9.49744,-0.0169343 8.99655,-0.0169243 9.74789,-0.0169384 9.24701,-0.0169297 9.49744,-0.0169343 9.99835,-0.0169429 9.74789,-0.0169384 10.2488,-0.0169456 10.4992,-0.0169476 9.99835,-0.0169429 10.7496,-0.0169491 10.2488,-0.0169456 10.4992,-0.0169476 10.9999,-0.016951 10.7496,-0.0169491 11.25,-0.0169515 11.5,-0.0169517 10.9999,-0.016951 11.75,-0.0169517 11.25,-0.0169515 11.5,-0.0169517 12,-0.0169527 11.75,-0.0169517 12.25,-0.0169524 12.5,-0.016952 12,-0.0169527 12.75,-0.0169515 12.25,-0.0169524 12.5,-0.016952 13,-0.0169519 12.75,-0.0169515 13.2501,-0.0169509 13.5003,-0.0169495 13,-0.0169519 13.7507,-0.0169476 13.2501,-0.0169509 13.5003,-0.0169495 14.0011,-0.0169461 13.7507,-0.0169476 14.2516,-0.0169429 14.502,-0.0169391 14.0011,-0.0169461 14.7525,-0.0169346 14.2516,-0.0169429 14.502,-0.0169391 15.003,-0.0169307 14.7525,-0.0169346 15.2534,-0.0169255 15.5037,-0.0169201 15.003,-0.0169307 15.7539,-0.0169147 15.2534,-0.0169255 15.5037,-0.0169201 16.004,-0.01691 15.7539,-0.0169147 16.2542,-0.0169034 16.5046,-0.0168958 16.004,-0.01691 16.7551,-0.0168872 16.2542,-0.0169034 16.5046,-0.0168958 17.0055,-0.0168787 16.7551,-0.0168872 17.256,-0.0168687 17.5064,-0.0168584 17.0055,-0.0168787 17.7569,-0.0168478 17.256,-0.0168687 17.5064,-0.0168584 18.0073,-0.0168379 17.7569,-0.0168478 18.2577,-0.0168265 18.5081,-0.0168141 18.0073,-0.0168379 18.7585,-0.0167995 18.2577,-0.0168265 18.5081,-0.0168141 19.0088,-0.0167809 18.7585,-0.0167995 19.2592,-0.0167512 19.5095,-0.0167013 19.0088,-0.0167809 19.7597,-0.0166128 19.2592,-0.0167512 19.5095,-0.0167013 20.0099,-0.0164545 19.7597,-0.0166128 20.2599,-0.0161699 20.5099,-0.0156716 20.0099,-0.0164545 20.7596,-0.0148224 20.2599,-0.0161699 20.5099,-0.0156716 21.0092,-0.0134183 20.7596,-0.0148224 21.2573,-0.0111721 21.5039,-0.00769837 21.0092,-0.0134183 21.7491,-0.00252102 21.2573,-0.0111721 21.5039,-0.00769837 21.9926,0.00488406 21.7491,-0.00252102 22.2331,0.0150269 22.4704,0.0284855 21.9926,0.00488406 22.704,0.0459947 22.2331,0.0150269 22.4704,0.0284855 22.9319,0.0686637 22.704,0.0459947 23.1525,0.0984161 23.3626,0.138895 22.9319,0.0686637 23.5546,0.197287 23.1525,0.0984161 23.3626,0.138895 23.7134,0.288648 23.5546,0.197287 23.8049,0.447596 23.8633,0.639542 23.7134,0.288648 23.9038,0.849439 23.8049,0.447596 23.8633,0.639542 23.9336,1.07011 23.9038,0.849439 23.9563,1.29789 23.9734,1.53084 23.9336,1.07011 23.9868,1.76785 23.9563,1.29789 23.9734,1.53084 23.9969,2.00816 23.9868,1.76785 24.0038,2.25122 24.0089,2.4965 23.9969,2.00816 24.0123,2.74345 24.0038,2.25122 24.0089,2.4965 24.0141,2.99163 24.0123,2.74345 24.0155,3.24066 24.0167,3.49022 24.0141,2.99163 24.0177,3.74017 24.0155,3.24066 24.0167,3.49022 24.0185,3.99034 24.0177,3.74017 24.0193,4.24071 24.0198,4.49106 24.0185,3.99034 24.0203,4.7414 24.0193,4.24071 24.0198,4.49106 24.0207,4.99174 24.0203,4.7414 24.021,5.24208 24.0212,5.49242 24.0207,4.99174 24.0214,5.74276 24.021,5.24208 24.0212,5.49242 24.0215,5.9931 24.0214,5.74276 24.0215,6.24342 24.0215,6.4938 24.0215,5.9931 24.0215,6.74427 24.0215,6.24342 24.0215,6.4938 24.0215,6.99483 24.0215,6.74427 24.0215,7.24545 24.0215,7.49612 24.0215,6.99483 24.0215,7.74683 24.0215,7.24545 24.0215,7.49612 24.0215,7.99757 24.0215,7.74683 24.0215,8.24832 24.0215,8.4989 24.0215,7.99757 24.0215,8.74931 24.0215,8.24832 24.0215,8.4989 24.0215,8.99964 24.0215,8.74931 24.0215,9.24988 24.0215,9.5 24.0215,8.99964 24.0215,9.75 24.0215,9.24988 24.0215,9.5 24.0215,10 24.0215,9.75 24.0215,10.25 24.0215,10.5 24.0215,10 24.0215,10.75 24.0215,10.25 24.0215,10.5 24.0215,11 24.0215,10.75 24.0215,11.25 24.0215,11.5001 24.0215,11 24.0215,11.7503 24.0215,11.25 24.0215,11.5001 24.0215,12.0006 24.0215,11.7503 24.0215,12.251 24.0215,12.5015 24.0215,12.0006 24.0215,12.7519 24.0215,12.251 24.0215,12.5015 24.0215,13.0024 24.0215,12.7519 24.0215,13.2528 24.0215,13.5032 24.0215,13.0024 24.0215,13.7536 24.0215,13.2528 24.0215,13.5032 24.0215,14.004 24.0215,13.7536 24.0214,14.2545 24.0213,14.5049 24.0215,14.004 24.0211,14.7553 24.0214,14.2545 24.0213,14.5049 24.0208,15.0056 24.0211,14.7553 24.0205,15.2559 24.02,15.5062 24.0208,15.0056 24.0194,15.7563 24.0205,15.2559 24.02,15.5062 24.0187,16.0062 24.0194,15.7563 24.0178,16.2564 24.0168,16.5067 24.0187,16.0062 24.0156,16.7569 24.0178,16.2564 24.0168,16.5067 24.0142,17.0063 24.0156,16.7569 24.0124,17.2544 24.009,17.5012 24.0142,17.0063 24.0038,17.7467 24.0124,17.2544 24.009,17.5012 23.997,17.99 24.0038,17.7467 23.9869,18.2304 23.9735,18.4678 23.997,17.99 23.9564,18.7014 23.9869,18.2304 23.9735,18.4678 23.9337,18.9294 23.9564,18.7014 23.9038,19.1502 23.8634,19.3604 23.9337,18.9294 23.805,19.5526 23.9038,19.1502 23.8634,19.3604 23.7135,19.7115 23.5546,19.8029 23.805,19.5526 23.3626,19.861 23.7135,19.7115 23.1527,19.901 23.5546,19.8029 23.3626,19.861 22.932,19.9305 22.7042,19.9528 23.1527,19.901 22.4706,19.9694 22.932,19.9305 22.2333,19.9823 22.7042,19.9528 22.4706,19.9694 21.9927,19.992 21.7492,19.9988 22.2333,19.9823 21.504,20.0039 21.9927,19.992 21.2574,20.0075 21.7492,19.9988 21.504,20.0039 21.0093,20.0096 20.7597,20.0103 21.2574,20.0075 20.5099,20.0109 21.0093,20.0096 20.26,20.0115 20.7597,20.0103 20.5099,20.0109 20.01,20.012 19.7598,20.0124 20.26,20.0115 19.5095,20.0128 20.01,20.012 19.2592,20.0131 19.7598,20.0124 19.5095,20.0128 19.0089,20.0135 18.7585,20.0137 19.2592,20.0131 18.5082,20.014 19.0089,20.0135 18.2578,20.0142 18.7585,20.0137 18.5082,20.014 18.0073,20.0145 17.7569,20.0147 18.2578,20.0142 17.5065,20.0148 18.0073,20.0145 17.2561,20.015 17.7569,20.0147 17.5065,20.0148 17.0056,20.0151 16.7551,20.0153 17.2561,20.015 16.5046,20.0154 17.0056,20.0151 16.2543,20.0155 16.7551,20.0153 16.5046,20.0154 16.004,20.0156 15.754,20.0157 16.2543,20.0155 15.5037,20.0157 16.004,20.0156 15.2534,20.0158 15.754,20.0157 15.5037,20.0157 15.003,20.0159 14.7525,20.0159 15.2534,20.0158 14.502,20.016 15.003,20.0159 14.2516,20.016 14.7525,20.0159 14.502,20.016 14.0011,20.016 13.7507,20.0161 14.2516,20.016 13.5003,20.0161 14.0011,20.016 13.2501,20.0161 13.7507,20.0161 13.5003,20.0161 13,20.0161 12.75,20.0161 13.2501,20.0161 12.5,20.0161 13,20.0161 12.25,20.0161 12.75,20.0161 12.5,20.0161 12,20.0161 11.75,20.0161 12.25,20.0161 11.5,20.0161 12,20.0161 11.25,20.0161 11.75,20.0161 11.5,20.0161 10.9999,20.0161 10.7496,20.0161 11.25,20.0161 10.4992,20.016 10.9999,20.0161 10.2488,20.016 10.7496,20.0161 10.4992,20.016 9.99833,20.016 9.74786,20.0159 10.2488,20.016 9.49741,20.0159 9.99833,20.016 9.24697,20.0158 9.74786,20.0159 9.49741,20.0159 8.99651,20.0157 8.74594,20.0156 9.24697,20.0158 8.49529,20.0156 8.99651,20.0157 8.24457,20.0155 8.74594,20.0156 8.49529,20.0156 7.9938,20.0154 7.74316,20.0153 8.24457,20.0155 7.49267,20.0151 7.9938,20.0154 7.24235,20.015 7.74316,20.0153 7.49267,20.0151 6.99204,20.0149 6.74172,20.0147 7.24235,20.015 6.4914,20.0145 6.99204,20.0149 6.24106,20.0144 6.74172,20.0147 6.4914,20.0145 5.9907,20.0142 5.74031,20.014 6.24106,20.0144 5.48988,20.0137 5.9907,20.0142 5.23942,20.0135 5.74031,20.014 5.48988,20.0137 4.98896,20.0132 4.73851,20.0129 5.23942,20.0135 4.48808,20.0125 4.98896,20.0132 4.2377,20.0122 4.73851,20.0129 4.48808,20.0125 3.98739,20.0118 3.73725,20.0113 4.2377,20.0122 3.48732,20.0108 3.98739,20.0118 3.23777,20.0103 3.73725,20.0113 3.48732,20.0108 2.9888,20.0096 2.74066,20.0075 3.23777,20.0103 2.49373,20.0039 2.9888,20.0096 2.24851,19.9987 2.74066,20.0075 2.49373,20.0039 2.00549,19.992 1.76523,19.9822 2.24851,19.9987 1.52833,19.9693 2.00549,19.992 1.29553,19.9527 1.76523,19.9822 1.52833,19.9693 1.06793,19.9305 0.847469,19.901 1.29553,19.9527 0.637768,19.861 1.06793,19.9305 0.44599,19.8029 0.847469,19.901 0.637768,19.861 0.287133,19.7116 0.195699,19.5527 0.44599,19.8029 0.137152,19.3605 0.287133,19.7116 0.0964814,19.1502 0.195699,19.5527 0.137152,19.3605 0.0665349,18.9294 0.0436857,18.7014 0.0964814,19.1502 0.0260199,18.4678 0.0665349,18.9294 0.0124406,18.2304 0.0436857,18.7014 0.0260199,18.4678 0.00222186,17.99 -0.00521706,17.7468 0.0124406,18.2304 -0.010403,17.5012 0.00222186,17.99 -0.0138735,17.2544 -0.00521706,17.7468 -0.010403,17.5012 -0.016113,17.0063 -0.0175117,16.7569 -0.0138735,17.2544 -0.0183585,16.5067 -0.016113,17.0063 -0.018856,16.2564 -0.0175117,16.7569 -0.0183585,16.5067 -0.0191409,16.0062 -0.0192988,15.7562 -0.018856,16.2564 -0.0193856,15.5061 -0.0191409,16.0062 -0.0194335,15.2559 -0.0192988,15.7562 -0.0193856,15.5061 -0.019462,15.0056 -0.0194788,14.7553 -0.0194335,15.2559 -0.0194903,14.5049 -0.019462,15.0056 -0.0194989,14.2544 -0.0194788,14.7553 -0.0194903,14.5049 -0.0195071,14.004 -0.0195131,13.7536 -0.0194989,14.2544 -0.0195184,13.5032 -0.0195071,14.004 -0.0195231,13.2528 -0.0195131,13.7536 -0.0195184,13.5032 -0.0195285,13.0024 -0.0195321,12.7519 -0.0195231,13.2528 -0.0195351,12.5015 -0.0195285,13.0024 -0.0195374,12.251 -0.0195321,12.7519 -0.0195351,12.5015 -0.0195403,12.0006 -0.0195414,11.7503 -0.0195374,12.251 -0.0195421,11.5001 -0.0195403,12.0006 -0.0195424,11.25 -0.0195414,11.7503 -0.0195421,11.5001 -0.0195437,11 -0.0195436,10.75 -0.0195424,11.25 -0.0195434,10.5 -0.0195437,11 -0.0195431,10.25 -0.0195436,10.75 -0.0195434,10.5 -0.0195439,10 -0.0195433,9.75 -0.0195431,10.25 -0.0195426,9.5 -0.0195439,10 -0.0195416,9.24988 -0.0195433,9.75 -0.0195426,9.5 -0.0195413,8.99964 -0.0195393,8.7493 -0.0195416,9.24988 -0.0195366,8.49889 -0.0195413,8.99964 -0.0195329,8.2483 -0.0195393,8.7493 -0.0195366,8.49889 -0.0195293,7.99754 -0.0195235,7.74679 -0.0195329,8.2483 -0.019517,7.49608 -0.0195293,7.99754 -0.0195099,7.2454 -0.0195235,7.74679 -0.019517,7.49608 -0.0195037,6.99479 -0.0194963,6.74424 -0.0195099,7.2454 -0.0194889,6.49378 -0.0195037,6.99479 -0.0194814,6.24342 -0.0194963,6.74424 -0.0194889,6.49378 -0.0194747,5.9931 -0.0194659,5.74277 -0.0194814,6.24342 -0.0194554,5.49243 -0.0194747,5.9931 -0.0194419,5.24209 -0.0194659,5.74277 -0.0194554,5.49243 -0.0194238,4.99175 -0.0193934,4.74141 -0.0194419,5.24209 -0.0193418,4.49107 -0.0194238,4.99175 -0.0192509,4.24072 -0.0193934,4.74141 -0.0193418,4.49107 -0.0190898,3.99036 -0.0188035,3.74019 -0.0192509,4.24072 -0.0183059,3.49024 -0.0190898,3.99036 -0.0174609,3.24069 -0.0188035,3.74019 -0.0183059,3.49024 -0.0160646,2.99167 -0.0138262,2.74348 -0.0174609,3.24069 -0.010356,2.49654 -0.0160646,2.99167 -0.00516781,2.25125 -0.0138262,2.74348 -0.010356,2.49654 0.00228293,2.00819 0.0125188,1.76788 -0.00516781,2.25125 0.0261097,1.53087 0.00228293,2.00819 0.0437792,1.29789 0.0125188,1.76788 0.0261097,1.53087 0.0666294,1.07009 0.0965721,0.849409 0.0437792,1.29789 0.137229,0.63949 0.0666294,1.07009 0.19576,0.447526 0.0965721,0.849409 0.137229,0.63949 0.28719,0.288574 0.446059,0.197227 0.19576,0.447526 0.637856,0.138858 0.28719,0.288574 0.847569,0.0984002 0.446059,0.197227 13.6512,3.08113 13.2726,3.21296 13.4485,3.13477 13.1492,3.33852 13.0404,3.47891 13.2726,3.21296 12.9333,3.62493 13.1492,3.33852 13.0404,3.47891 12.8217,3.76699 12.6815,3.87689 12.9333,3.62493 12.5368,3.98291 12.8217,3.76699 12.394,4.09436 12.6815,3.87689 12.5368,3.98291 12.2659,4.22047 12.394,4.09436 12.1899,4.39462 12.1402,4.59362 12.2659,4.22047 12.1056,4.80694 12.1899,4.39462 12.1402,4.59362 12.0798,5.02959 12.1056,4.80694 12.0601,5.259 12.0449,5.49366 12.0798,5.02959 12.0333,5.7327 12.0601,5.259 12.0449,5.49366 12.0243,5.97533 12.0333,5.7327 12.0178,6.22083 12.0128,6.46827 12.0243,5.97533 12.0087,6.71699 12.0178,6.22083 12.0128,6.46827 12.0053,6.96638 12.0087,6.71699 12.0019,7.21581 11.9977,7.46469 12.0053,6.96638 11.9928,7.71243 12.0019,7.21581 11.9977,7.46469 11.9861,7.95848 11.9928,7.71243 11.9771,8.20203 11.9653,8.44224 11.9861,7.95848 11.9499,8.67802 11.9771,8.20203 11.9653,8.44224 11.9297,8.90801 11.9499,8.67802 11.9028,9.1298 11.8657,9.33907 11.9297,8.90801 11.8116,9.52759 11.9028,9.1298 11.8657,9.33907 11.726,9.67839 11.5755,9.75204 11.8116,9.52759 11.3952,9.78222 11.726,9.67839 11.2006,9.78141 11.5755,9.75204 11.3952,9.78222 11.0005,9.7516 11.0272,9.58486 11.2006,9.78141 11.0478,9.39272 11.0005,9.7516 11.0272,9.58486 11.0631,9.18424 11.0478,9.39272 11.0736,8.96386 11.0799,8.73475 11.0631,9.18424 11.0825,8.49885 11.0736,8.96386 11.0799,8.73475 11.0816,8.25838 11.0825,8.49885 11.0771,8.0154 11.0687,7.77244 11.0816,8.25838 11.0555,7.53102 11.0771,8.0154 11.0687,7.77244 11.0363,7.29293 11.0555,7.53102 11.0098,7.05965 10.9752,6.83285 11.0363,7.29293 10.9305,6.61533 11.0098,7.05965 10.9752,6.83285 10.8718,6.41231 10.9305,6.61533 10.7898,6.23424 10.6624,6.10385 10.8718,6.41231 10.52,5.98837 10.7898,6.23424 10.3699,5.88007 10.6624,6.10385 10.52,5.98837 10.2239,5.76791 10.1114,5.62188 10.3699,5.88007 10.003,5.47188 10.2239,5.76791 10.1114,5.62188 9.88847,5.33013 10.003,5.47188 9.75937,5.20374 9.58256,5.1228 9.88847,5.33013 9.38159,5.06645 9.75937,5.20374 9.16754,5.02585 9.58256,5.1228 9.38159,5.06645 8.94627,4.99766 8.72106,4.98076 9.16754,5.02585 8.49426,4.97518 8.94627,4.99766 8.26754,4.98094 8.72106,4.98076 8.49426,4.97518 8.04285,4.99811 7.82253,5.0267 8.26754,4.98094 7.60955,5.0676 8.04285,4.99811 7.40958,5.1242 7.82253,5.0267 7.60955,5.0676 7.23337,5.20516 7.40958,5.1242 7.10385,5.33159 6.98885,5.4734 7.23337,5.20516 6.88094,5.62347 7.10385,5.33159 6.98885,5.4734 6.76899,5.76942 6.62302,5.88138 6.88094,5.62347 6.47292,5.9893 6.76899,5.76942 6.3311,6.10428 6.62302,5.88138 6.47292,5.9893 6.20469,6.23379 6.3311,6.10428 6.12369,6.41002 6.06703,6.61002 6.20469,6.23379 6.02601,6.82302 6.12369,6.41002 6.06703,6.61002 5.9973,7.04331 6.02601,6.82302 5.97994,7.26779 5.97399,7.49437 5.9973,7.04331 5.97929,7.72119 5.97994,7.26779 5.97399,7.49437 5.99554,7.9464 5.97929,7.72119 6.02287,8.16754 6.06212,8.38142 5.99554,7.9464 6.11631,8.58198 6.02287,8.16754 6.06212,8.38142 6.19347,8.75825 6.11631,8.58198 6.31303,8.88723 6.4454,9.00195 6.19347,8.75825 6.31303,8.88723 6.58355,9.11018 6.4454,9.00195 6.71011,9.22367 6.58355,9.11018 6.7839,9.37527 6.83341,9.53693 6.71011,9.22367 6.87238,9.69414 6.7839,9.37527 6.83341,9.53693 6.90632,9.83852 6.68176,9.89135 6.87238,9.69414 6.45526,9.93667 6.90632,9.83852 6.23019,9.97944 6.68176,9.89135 6.45526,9.93667 6.00871,10.0226 5.79211,10.0669 6.23019,9.97944 5.58257,10.1148 6.00871,10.0226 5.38508,10.1723 5.79211,10.0669 5.58257,10.1148 5.20977,10.2514 5.38508,10.1723 5.07856,10.3765 4.95966,10.5126 5.20977,10.2514 4.84568,10.6491 5.07856,10.3765 4.95966,10.5126 4.72184,10.7754 4.54878,10.8567 4.84568,10.6491 4.35415,10.9183 4.72184,10.7754 4.1522,10.9721 4.54878,10.8567 4.35415,10.9183 3.95118,11.0244 3.75552,11.0779 4.1522,10.9721 3.56742,11.1351 3.95118,11.0244 3.39272,11.2038 3.75552,11.0779 3.56742,11.1351 3.24608,11.3007 3.39272,11.2038 3.16141,11.4624 3.11,11.6553 3.24608,11.3007 3.0801,11.8645 3.16141,11.4624 3.11,11.6553 3.06673,12.0821 3.0801,11.8645 3.06785,12.3039 3.08282,12.5271 3.06673,12.0821 3.11218,12.7498 3.06785,12.3039 3.08282,12.5271 3.15846,12.9698 3.11218,12.7498 3.10271,13.2253 3.05996,13.4802 3.15846,12.9698 3.02632,13.7344 3.10271,13.2253 3.05996,13.4802 3.00012,13.9881 3.02632,13.7344 2.98079,14.2411 2.96796,14.4929 3.00012,13.9881 2.96115,14.7426 2.98079,14.2411 2.96796,14.4929 2.96005,14.9898 2.96115,14.7426 2.9646,15.2342 2.97511,15.4747 2.96005,14.9898 2.992,15.7107 2.9646,15.2342 2.97511,15.4747 3.01572,15.9414 2.992,15.7107 3.04697,16.1656 3.0877,16.3809 3.01572,15.9414 3.14247,16.5816 3.04697,16.1656 3.0877,16.3809 3.22137,16.7567 3.14247,16.5816 3.34718,16.8827 3.48753,16.9938 3.22137,16.7567 3.34718,16.8827 3.63401,17.1001 3.48753,16.9938 3.77658,17.2106 3.63401,17.1001 3.88683,17.3527 3.99321,17.4989 3.77658,17.2106 4.10531,17.64 3.88683,17.3527 3.99321,17.4989 4.23201,17.7665 4.10531,17.64 4.40668,17.8452 4.60613,17.8995 4.23201,17.7665 4.40668,17.8452 4.81982,17.9397 4.60613,17.8995 5.04261,17.9706 4.81982,17.9397 5.27212,17.9949 5.50709,18.0138 5.04261,17.9706 5.27212,17.9949 5.74673,18.0274 5.50709,18.0138 5.99028,18.0374 5.74673,18.0274 6.23691,18.0442 6.48584,18.0486 5.99028,18.0374 6.23691,18.0442 6.73641,18.0518 6.48584,18.0486 6.98821,18.0539 6.73641,18.0518 7.24073,18.055 7.49364,18.0556 6.98821,18.0539 7.24073,18.055 7.74669,18.0559 7.49364,18.0556 7.99986,18.056 7.74669,18.0559 8.25304,18.0559 8.50617,18.0556 7.99986,18.056 8.25304,18.0559 8.75902,18.055 8.50617,18.0556 9.01135,18.0537 8.75902,18.055 9.26289,18.0514 9.51337,18.0479 9.01135,18.0537 9.26289,18.0514 9.76198,18.0432 9.51337,18.0479 10.0081,18.0354 9.76198,18.0432 10.2508,18.0244 10.4893,18.0091 10.0081,18.0354 10.2508,18.0244 10.7227,17.9884 10.4893,18.0091 10.9501,17.9619 10.7227,17.9884 11.1696,17.9275 11.3784,17.8822 10.9501,17.9619 11.1696,17.9275 11.5695,17.8195 11.3784,17.8822 11.7292,17.7253 11.5695,17.8195 11.8249,17.5662 11.8899,17.3749 11.7292,17.7253 11.8249,17.5662 11.939,17.1661 11.8899,17.3749 11.979,16.9467 12.0132,16.7198 11.939,17.1661 12.0428,16.4872 11.979,16.9467 12.0132,16.7198 12.0697,16.2495 12.0428,16.4872 12.0956,16.0076 12.1235,15.7632 12.0697,16.2495 12.1568,15.5176 12.0956,16.0076 12.1235,15.7632 12.2005,15.2722 12.1568,15.5176 12.2632,15.0284 12.4314,15.0198 12.2005,15.2722 12.6189,15.0083 12.2632,15.0284 12.4314,15.0198 12.8148,14.9915 12.6189,15.0083 13.0135,14.9686 12.8148,14.9915 13.2119,14.9388 13.4082,14.9002 13.0135,14.9686 13.2119,14.9388 13.5961,14.8478 13.4082,14.9002 13.7636,14.7709 13.5961,14.8478 13.8855,14.6467 13.9949,14.5083 13.7636,14.7709 13.8855,14.6467 14.1014,14.3647 13.9949,14.5083 14.2136,14.2266 14.3596,14.1234 14.1014,14.3647 14.5126,14.0278 14.2136,14.2266 14.3596,14.1234 14.663,13.9293 14.5126,14.0278 14.805,13.8232 14.663,13.9293 14.9148,13.6888 15.0162,13.5486 14.805,13.8232 14.9148,13.6888 15.1141,13.4077 15.0162,13.5486 15.2204,13.282 15.3664,13.2107 15.1141,13.4077 15.5236,13.1664 15.2204,13.282 15.3664,13.2107 15.6786,13.1366 15.5236,13.1664 15.823,13.1176 15.6786,13.1366 15.8556,13.3411 15.8798,13.5733 15.823,13.1176 15.8999,13.8104 15.8556,13.3411 15.8798,13.5733 15.9186,14.0499 15.8999,13.8104 15.9377,14.2894 15.9592,14.527 15.9186,14.0499 15.9846,14.7606 15.9377,14.2894 15.9592,14.527 16.0153,14.9884 15.9846,14.7606 16.0514,15.2092 16.0958,15.4207 16.0153,14.9884 16.1533,15.6184 16.0514,15.2092 16.0958,15.4207 16.2343,15.7925 16.1533,15.6184 16.362,15.9212 16.5041,16.0349 16.2343,15.7925 16.362,15.9212 16.6518,16.1404 16.5041,16.0349 16.7951,16.25 16.6518,16.1404 16.9063,16.3952 17.013,16.5446 16.7951,16.25 17.1249,16.6849 16.9063,16.3952 17.013,16.5446 17.2514,16.8097 17.1249,16.6849 17.4261,16.8904 17.6249,16.9475 17.2514,16.8097 17.4261,16.8904 17.8368,16.9886 17.6249,16.9475 18.0553,17.0166 17.8368,16.9886 18.2771,17.0326 18.5006,17.0367 18.0553,17.0166 18.2771,17.0326 18.7233,17.0288 18.5006,17.0367 18.9437,17.009 18.7233,17.0288 19.1592,16.9768 19.3661,16.931 18.9437,17.009 19.1592,16.9768 19.5576,16.8669 19.3661,16.931 19.7196,16.7733 19.5576,16.8669 19.8207,16.6232 19.8947,16.4474 19.7196,16.7733 19.8207,16.6232 19.9564,16.2583 19.8947,16.4474 20.0124,16.06 20.0643,15.855 19.9564,16.2583 20.1158,15.6489 20.0124,16.06 20.0643,15.855 20.1745,15.451 20.1158,15.6489 20.2548,15.2756 20.3838,15.1506 20.1745,15.451 20.5235,15.0356 20.2548,15.2756 20.3838,15.1506 20.658,14.9146 20.5235,15.0356 20.7799,14.7811 20.658,14.9146 20.8574,14.603 20.912,14.4012 20.7799,14.7811 20.8574,14.603 20.9533,14.1857 20.912,14.4012 20.9857,13.961 21.0108,13.7292 20.9533,14.1857 21.0299,13.4916 20.9857,13.961 21.0108,13.7292 21.0438,13.2491 21.0299,13.4916 21.0531,13.0028 21.0596,12.7535 21.0438,13.2491 21.0638,12.502 21.0531,13.0028 21.0596,12.7535 21.0658,12.2494 21.0638,12.502 21.0663,11.9962 21.0657,11.743 21.0658,12.2494 21.0637,11.4902 21.0663,11.9962 21.0657,11.743 21.0595,11.2387 21.0637,11.4902 21.053,10.9894 21.0437,10.7431 21.0595,11.2387 21.0297,10.5007 21.053,10.9894 21.0437,10.7431 21.0105,10.2636 21.0297,10.5007 20.9852,10.0323 20.9525,9.80797 21.0105,10.2636 20.911,9.59293 20.9852,10.0323 20.9525,9.80797 20.8563,9.39192 20.911,9.59293 20.7788,9.21403 20.6571,9.08035 20.8563,9.39192 20.5228,8.95941 20.7788,9.21403 20.3833,8.84497 20.6571,9.08035 20.5228,8.95941 20.2542,8.72054 20.174,8.54515 20.3833,8.84497 20.1156,8.34717 20.2542,8.72054 20.174,8.54515 20.0647,8.14137 20.1156,8.34717 20.0137,7.93687 19.9585,7.73982 20.0647,8.14137 19.8978,7.55295 20.0137,7.93687 19.9585,7.73982 19.8263,7.3807 19.8978,7.55295 19.7298,7.23652 19.5753,7.15255 19.8263,7.3807 19.3949,7.10211 19.7298,7.23652 19.2029,7.07456 19.5753,7.15255 19.3949,7.10211 19.0059,7.06581 18.8071,7.07481 19.2029,7.07456 18.6099,7.10287 19.0059,7.06581 18.4219,7.15413 18.8071,7.07481 18.6099,7.10287 18.2567,7.239 18.4219,7.15413 18.1425,7.38339 18.0451,7.55417 18.2567,7.239 17.9512,7.73765 18.1425,7.38339 18.0451,7.55417 17.8578,7.93016 17.714,7.89171 17.9512,7.73765 17.5622,7.84626 17.8578,7.93016 17.4108,7.78668 17.714,7.89171 17.5622,7.84626 17.2779,7.69587 17.2035,7.53598 17.4108,7.78668 17.1581,7.3416 17.2779,7.69587 17.2035,7.53598 17.1286,7.12805 17.1581,7.3416 17.1083,6.90285 17.0935,6.6701 17.1286,7.12805 17.0826,6.43211 17.1083,6.90285 17.0935,6.6701 17.0742,6.19052 17.0826,6.43211 17.0674,5.94648 17.0615,5.70101 17.0742,6.19052 17.0559,5.45504 17.0674,5.94648 17.0615,5.70101 17.0492,5.20964 17.0559,5.45504 17.0407,4.9659 17.0295,4.72513 17.0492,5.20964 17.0141,4.48856 17.0407,4.9659 17.0295,4.72513 16.9928,4.25744 17.0141,4.48856 16.9651,4.03287 16.9302,3.81616 16.9928,4.25744 16.8845,3.61022 16.9651,4.03287 16.9302,3.81616 16.8216,3.42149 16.8845,3.61022 16.7274,3.26384 16.5695,3.16938 16.8216,3.42149 16.3803,3.10593 16.7274,3.26384 16.1737,3.05981 16.5695,3.16938 16.3803,3.10593 15.9566,3.02491 15.7327,2.99872 16.1737,3.05981 15.5035,2.9804 15.9566,3.02491 15.27,2.96953 15.7327,2.99872 15.5035,2.9804 15.034,2.96548 14.7972,2.96778 15.27,2.96953 14.5608,2.97628 15.034,2.96548 14.326,2.9911 14.7972,2.96778 14.5608,2.97628 14.0946,3.0127 13.8686,3.04197 14.326,2.9911 13.6512,3.08113 14.0946,3.0127 13.4485,3.13477 13.8686,3.04197"/>
	</g>
	<g fill="#ff0076">
	<polygon points="3.15846,12.9698 3.28944,12.9301 3.10271,13.2253 3.05996,13.4802 3.15846,12.9698 3.02632,13.7344 3.10271,13.2253 3.05996,13.4802 3.00012,13.9881 3.02632,13.7344 2.98079,14.2411 2.96796,14.4929 3.00012,13.9881 2.96115,14.7426 2.98079,14.2411 2.96796,14.4929 2.96005,14.9898 2.96115,14.7426 2.9646,15.2342 2.97511,15.4747 2.96005,14.9898 2.992,15.7107 2.9646,15.2342 2.97511,15.4747 3.01572,15.9414 2.992,15.7107 3.04697,16.1656 3.0877,16.3809 3.01572,15.9414 3.14247,16.5816 3.04697,16.1656 3.0877,16.3809 3.22137,16.7567 3.14247,16.5816 3.34718,16.8827 3.48753,16.9938 3.22137,16.7567 3.34718,16.8827 3.63401,17.1001 3.48753,16.9938 3.77658,17.2106 3.63401,17.1001 3.88683,17.3527 3.99321,17.4989 3.77658,17.2106 4.10531,17.64 3.88683,17.3527 3.99321,17.4989 4.23201,17.7665 4.10531,17.64 4.40668,17.8452 4.60613,17.8995 4.23201,17.7665 4.40668,17.8452 4.81982,17.9397 4.60613,17.8995 5.04261,17.9706 4.81982,17.9397 5.27212,17.9949 5.50709,18.0138 5.04261,17.9706 5.27212,17.9949 5.74673,18.0274 5.50709,18.0138 5.99028,18.0374 5.74673,18.0274 6.23691,18.0442 6.48584,18.0486 5.99028,18.0374 6.23691,18.0442 6.73641,18.0518 6.48584,18.0486 6.98821,18.0539 6.73641,18.0518 7.24073,18.055 7.49364,18.0556 6.98821,18.0539 7.24073,18.055 7.74669,18.0559 7.49364,18.0556 7.99986,18.056 7.74669,18.0559 8.25304,18.0559 8.50617,18.0556 7.99986,18.056 8.25304,18.0559 8.75902,18.055 8.50617,18.0556 9.01135,18.0537 8.75902,18.055 9.26289,18.0514 9.51337,18.0479 9.01135,18.0537 9.26289,18.0514 9.76198,18.0432 9.51337,18.0479 10.0081,18.0354 9.76198,18.0432 10.2508,18.0244 10.4893,18.0091 10.0081,18.0354 10.2508,18.0244 10.7227,17.9884 10.4893,18.0091 10.9501,17.9619 10.7227,17.9884 11.1696,17.9275 11.3784,17.8822 10.9501,17.9619 11.1696,17.9275 11.5695,17.8195 11.3784,17.8822 11.7292,17.7253 11.5695,17.8195 11.8249,17.5662 11.8899,17.3749 11.7292,17.7253 11.8249,17.5662 11.939,17.1661 11.8899,17.3749 11.979,16.9467 12.0132,16.7198 11.939,17.1661 12.0428,16.4872 11.979,16.9467 12.0132,16.7198 12.0697,16.2495 12.0428,16.4872 12.0956,16.0076 12.1235,15.7632 12.0697,16.2495 12.1568,15.5176 12.0956,16.0076 12.1235,15.7632 12.2005,15.2722 12.1568,15.5176 12.2632,15.0284 12.1916,14.7922 12.2005,15.2722 12.1366,14.5571 12.2632,15.0284 12.1916,14.7922 12.0884,14.324 12.1366,14.5571 12.0416,14.0942 11.993,13.8686 12.0884,14.324 11.94,13.6504 12.0416,14.0942 11.993,13.8686 11.8774,13.4455 11.94,13.6504 11.7946,13.2654 11.6692,13.1348 11.8774,13.4455 11.5328,13.0163 11.7946,13.2654 11.3933,12.8981 11.6692,13.1348 11.5328,13.0163 11.2643,12.77 11.1835,12.5977 11.3933,12.8981 11.1237,12.4052 11.2643,12.77 11.1835,12.5977 11.0711,12.205 11.1237,12.4052 11.0184,12.0044 10.9626,11.8059 11.0711,12.205 10.9014,11.6119 11.0184,12.0044 10.9626,11.8059 10.8282,11.43 10.9014,11.6119 10.7271,11.2762 10.5629,11.1856 10.8282,11.43 10.3673,11.126 10.7271,11.2762 10.1542,11.0836 10.5629,11.1856 10.3673,11.126 9.92994,11.0517 9.69816,11.0271 10.1542,11.0836 9.46066,11.008 9.92994,11.0517 9.21876,10.9937 9.69816,11.0271 9.46066,11.008 8.97328,10.9834 8.72485,10.9763 9.21876,10.9937 8.47452,10.9716 8.97328,10.9834 8.2229,10.9692 8.72485,10.9763 8.47452,10.9716 7.97045,10.9686 7.71802,10.9693 8.2229,10.9692 7.4662,10.9717 7.97045,10.9686 7.21582,10.9761 7.71802,10.9693 7.4662,10.9717 6.96756,10.9828 6.72239,10.9927 7.21582,10.9761 6.48134,11.0067 6.96756,10.9828 6.24552,11.0253 6.72239,10.9927 6.48134,11.0067 6.0159,11.049 5.79351,11.0791 6.24552,11.0253 5.58078,11.1179 6.0159,11.049 5.38214,11.1707 5.79351,11.0791 5.58078,11.1179 5.20744,11.2485 5.38214,11.1707 5.07818,11.3751 4.96347,11.5157 5.20744,11.2485 4.85625,11.6603 5.07818,11.3751 4.96347,11.5157 4.74378,11.7992 4.59339,11.9043 4.85625,11.6603 4.43547,12.0019 4.74378,11.7992 4.28372,12.1014 4.59339,11.9043 4.43547,12.0019 4.14267,12.208 4.28372,12.1014 4.03066,12.3446 3.92968,12.4869 4.14267,12.208 3.83575,12.6283 4.03066,12.3446 3.92968,12.4869 3.73361,12.7552 3.58901,12.8319 3.83575,12.6283 3.43534,12.8858 3.73361,12.7552 3.28944,12.9301 3.58901,12.8319 3.43534,12.8858 3.15846,12.9698"/>
	</g>
	<g fill="#adff00">
	<polygon points="13.4485,3.13477 13.6512,3.08113 13.2726,3.21296 13.4485,3.13477 13.1492,3.33852 13.0404,3.47891 13.2726,3.21296 12.9333,3.62493 13.1492,3.33852 13.0404,3.47891 12.8217,3.76699 12.6815,3.87689 12.9333,3.62493 12.5368,3.98291 12.8217,3.76699 12.394,4.09436 12.6815,3.87689 12.5368,3.98291 12.2659,4.22047 12.394,4.09436 12.1899,4.39462 12.1402,4.59362 12.2659,4.22047 12.1056,4.80694 12.1899,4.39462 12.1402,4.59362 12.0798,5.02959 12.1056,4.80694 12.0601,5.259 12.0449,5.49366 12.0798,5.02959 12.0333,5.7327 12.0601,5.259 12.0449,5.49366 12.0243,5.97533 12.0333,5.7327 12.0178,6.22083 12.0128,6.46827 12.0243,5.97533 12.0087,6.71699 12.0178,6.22083 12.0128,6.46827 12.0053,6.96638 12.0087,6.71699 12.0019,7.21581 11.9977,7.46469 12.0053,6.96638 11.9928,7.71243 12.0019,7.21581 11.9977,7.46469 11.9861,7.95848 11.9928,7.71243 11.9771,8.20203 11.9653,8.44224 11.9861,7.95848 11.9499,8.67802 11.9771,8.20203 11.9653,8.44224 11.9297,8.90801 11.9499,8.67802 11.9028,9.1298 11.8657,9.33907 11.9297,8.90801 11.8116,9.52759 11.9028,9.1298 11.8657,9.33907 11.726,9.67839 11.5755,9.75204 11.8116,9.52759 11.3952,9.78222 11.726,9.67839 11.2006,9.78141 11.5755,9.75204 11.3952,9.78222 11.0005,9.7516 10.7652,9.84377 11.2006,9.78141 6.68176,9.89135 7.16393,9.90476 7.42217,9.95526 6.90632,9.83852 7.16393,9.90476 7.68186,9.99435 7.42217,9.95526 7.94301,10.0239 7.68186,9.99435 8.2052,10.0455 8.46772,10.0597 7.94301,10.0239 8.2052,10.0455 8.73005,10.0674 8.46772,10.0597 8.99169,10.0689 8.73005,10.0674 9.25254,10.0641 9.51242,10.0525 8.99169,10.0689 9.25254,10.0641 9.77041,10.0328 9.51242,10.0525 10.0255,10.0036 9.77041,10.0328 10.2768,9.96356 10.5236,9.91146 10.0255,10.0036 10.2768,9.96356 10.7652,9.84377 10.5236,9.91146 11.0005,9.7516 6.45526,9.93667 6.90632,9.83852 6.23019,9.97944 6.68176,9.89135 6.45526,9.93667 6.00871,10.0226 5.79211,10.0669 6.23019,9.97944 5.58257,10.1148 6.00871,10.0226 5.38508,10.1723 5.79211,10.0669 5.58257,10.1148 5.20977,10.2514 5.38508,10.1723 5.07856,10.3765 4.95966,10.5126 5.20977,10.2514 4.84568,10.6491 5.07856,10.3765 4.95966,10.5126 4.72184,10.7754 4.54878,10.8567 4.84568,10.6491 4.35415,10.9183 4.72184,10.7754 4.1522,10.9721 4.54878,10.8567 4.35415,10.9183 3.95118,11.0244 3.75552,11.0779 4.1522,10.9721 3.56742,11.1351 3.95118,11.0244 3.39272,11.2038 3.75552,11.0779 3.56742,11.1351 3.24608,11.3007 3.39272,11.2038 3.16141,11.4624 3.11,11.6553 3.24608,11.3007 3.0801,11.8645 3.16141,11.4624 3.11,11.6553 3.06673,12.0821 3.0801,11.8645 3.06785,12.3039 3.08282,12.5271 3.06673,12.0821 3.11218,12.7498 3.06785,12.3039 3.08282,12.5271 3.15846,12.9698 3.11218,12.7498 3.28944,12.9301 12.1916,14.7922 12.4314,15.0198 12.6189,15.0083 12.2632,15.0284 12.4314,15.0198 12.8148,14.9915 12.6189,15.0083 13.0135,14.9686 12.8148,14.9915 13.2119,14.9388 13.4082,14.9002 13.0135,14.9686 13.2119,14.9388 13.5961,14.8478 13.4082,14.9002 13.7636,14.7709 13.5961,14.8478 13.8855,14.6467 13.9949,14.5083 13.7636,14.7709 13.8855,14.6467 14.1014,14.3647 13.9949,14.5083 14.2136,14.2266 14.3596,14.1234 14.1014,14.3647 14.5126,14.0278 14.2136,14.2266 14.3596,14.1234 14.663,13.9293 14.5126,14.0278 14.805,13.8232 14.663,13.9293 14.9148,13.6888 15.0162,13.5486 14.805,13.8232 14.9148,13.6888 15.1141,13.4077 15.0162,13.5486 15.2204,13.282 15.3664,13.2107 15.1141,13.4077 15.5236,13.1664 15.2204,13.282 15.3664,13.2107 15.6786,13.1366 15.5236,13.1664 15.823,13.1176 15.6786,13.1366 15.9158,12.886 17.714,7.89171 17.8918,8.16494 17.9131,8.40183 17.8578,7.93016 17.9232,8.63891 17.8918,8.16494 17.9131,8.40183 17.9226,8.87422 17.9232,8.63891 17.9108,9.10515 17.8857,9.3279 17.9226,8.87422 17.8426,9.53592 17.9108,9.10515 17.8857,9.3279 17.7716,9.71714 17.6505,9.84556 17.8426,9.53592 17.5165,9.96225 17.7716,9.71714 17.3807,10.0822 17.6505,9.84556 17.5165,9.96225 17.2544,10.2128 17.3807,10.0822 17.1735,10.3859 17.1128,10.5787 17.2544,10.2128 17.0598,10.7803 17.1735,10.3859 17.1128,10.5787 17.0083,10.9851 17.0598,10.7803 16.9564,11.191 16.9023,11.3952 17.0083,10.9851 16.8389,11.5911 16.9564,11.191 16.9023,11.3952 16.7538,11.7666 16.6213,11.8976 16.8389,11.5911 16.4764,12.019 16.7538,11.7666 16.3309,12.1402 16.6213,11.8976 16.4764,12.019 16.1929,12.2733 16.3309,12.1402 16.0916,12.4566 16.0029,12.6645 16.1929,12.2733 15.9158,12.886 16.0916,12.4566 16.0029,12.6645 15.823,13.1176 17.5622,7.84626 17.8578,7.93016 17.4108,7.78668 17.714,7.89171 17.5622,7.84626 17.2779,7.69587 17.2035,7.53598 17.4108,7.78668 17.1581,7.3416 17.2779,7.69587 17.2035,7.53598 17.1286,7.12805 17.1581,7.3416 17.1083,6.90285 17.0935,6.6701 17.1286,7.12805 17.0826,6.43211 17.1083,6.90285 17.0935,6.6701 17.0742,6.19052 17.0826,6.43211 17.0674,5.94648 17.0615,5.70101 17.0742,6.19052 17.0559,5.45504 17.0674,5.94648 17.0615,5.70101 17.0492,5.20964 17.0559,5.45504 17.0407,4.9659 17.0295,4.72513 17.0492,5.20964 17.0141,4.48856 17.0407,4.9659 17.0295,4.72513 16.9928,4.25744 17.0141,4.48856 16.9651,4.03287 16.9302,3.81616 16.9928,4.25744 16.8845,3.61022 16.9651,4.03287 16.9302,3.81616 16.8216,3.42149 16.8845,3.61022 16.7274,3.26384 16.5695,3.16938 16.8216,3.42149 16.3803,3.10593 16.7274,3.26384 16.1737,3.05981 16.5695,3.16938 16.3803,3.10593 15.9566,3.02491 15.7327,2.99872 16.1737,3.05981 15.5035,2.9804 15.9566,3.02491 15.27,2.96953 15.7327,2.99872 15.5035,2.9804 15.034,2.96548 14.7972,2.96778 15.27,2.96953 14.5608,2.97628 15.034,2.96548 14.326,2.9911 14.7972,2.96778 14.5608,2.97628 14.0946,3.0127 13.8686,3.04197 14.326,2.9911 13.6512,3.08113 14.0946,3.0127 13.4485,3.13477 13.8686,3.04197 12.1366,14.5571 12.2632,15.0284 12.1916,14.7922 12.0884,14.324 12.1366,14.5571 12.0416,14.0942 11.993,13.8686 12.0884,14.324 11.94,13.6504 12.0416,14.0942 11.993,13.8686 11.8774,13.4455 11.94,13.6504 11.7946,13.2654 11.6692,13.1348 11.8774,13.4455 11.5328,13.0163 11.7946,13.2654 11.3933,12.8981 11.6692,13.1348 11.5328,13.0163 11.2643,12.77 11.1835,12.5977 11.3933,12.8981 11.1237,12.4052 11.2643,12.77 11.1835,12.5977 11.0711,12.205 11.1237,12.4052 11.0184,12.0044 10.9626,11.8059 11.0711,12.205 10.9014,11.6119 11.0184,12.0044 10.9626,11.8059 10.8282,11.43 10.9014,11.6119 10.7271,11.2762 10.5629,11.1856 10.8282,11.43 10.3673,11.126 10.7271,11.2762 10.1542,11.0836 10.5629,11.1856 10.3673,11.126 9.92994,11.0517 9.69816,11.0271 10.1542,11.0836 9.46066,11.008 9.92994,11.0517 9.21876,10.9937 9.69816,11.0271 9.46066,11.008 8.97328,10.9834 8.72485,10.9763 9.21876,10.9937 8.47452,10.9716 8.97328,10.9834 8.2229,10.9692 8.72485,10.9763 8.47452,10.9716 7.97045,10.9686 7.71802,10.9693 8.2229,10.9692 7.4662,10.9717 7.97045,10.9686 7.21582,10.9761 7.71802,10.9693 7.4662,10.9717 6.96756,10.9828 6.72239,10.9927 7.21582,10.9761 6.48134,11.0067 6.96756,10.9828 6.24552,11.0253 6.72239,10.9927 6.48134,11.0067 6.0159,11.049 5.79351,11.0791 6.24552,11.0253 5.58078,11.1179 6.0159,11.049 5.38214,11.1707 5.79351,11.0791 5.58078,11.1179 5.20744,11.2485 5.38214,11.1707 5.07818,11.3751 4.96347,11.5157 5.20744,11.2485 4.85625,11.6603 5.07818,11.3751 4.96347,11.5157 4.74378,11.7992 4.59339,11.9043 4.85625,11.6603 4.43547,12.0019 4.74378,11.7992 4.28372,12.1014 4.59339,11.9043 4.43547,12.0019 4.14267,12.208 4.28372,12.1014 4.03066,12.3446 3.92968,12.4869 4.14267,12.208 3.83575,12.6283 4.03066,12.3446 3.92968,12.4869 3.73361,12.7552 3.58901,12.8319 3.83575,12.6283 3.43534,12.8858 3.73361,12.7552 3.28944,12.9301 3.58901,12.8319 3.43534,12.8858 3.15846,12.9698"/>
	</g>
	<g fill="#002cff">
	<polygon points="15.823,13.1176 15.9158,12.886 15.8556,13.3411 15.8798,13.5733 15.823,13.1176 15.8999,13.8104 15.8556,13.3411 15.8798,13.5733 15.9186,14.0499 15.8999,13.8104 15.9377,14.2894 15.9592,14.527 15.9186,14.0499 15.9846,14.7606 15.9377,14.2894 15.9592,14.527 16.0153,14.9884 15.9846,14.7606 16.0514,15.2092 16.0958,15.4207 16.0153,14.9884 16.1533,15.6184 16.0514,15.2092 16.0958,15.4207 16.2343,15.7925 16.1533,15.6184 16.362,15.9212 16.5041,16.0349 16.2343,15.7925 16.362,15.9212 16.6518,16.1404 16.5041,16.0349 16.7951,16.25 16.6518,16.1404 16.9063,16.3952 17.013,16.5446 16.7951,16.25 17.1249,16.6849 16.9063,16.3952 17.013,16.5446 17.2514,16.8097 17.1249,16.6849 17.4261,16.8904 17.6249,16.9475 17.2514,16.8097 17.4261,16.8904 17.8368,16.9886 17.6249,16.9475 18.0553,17.0166 17.8368,16.9886 18.2771,17.0326 18.5006,17.0367 18.0553,17.0166 18.2771,17.0326 18.7233,17.0288 18.5006,17.0367 18.9437,17.009 18.7233,17.0288 19.1592,16.9768 19.3661,16.931 18.9437,17.009 19.1592,16.9768 19.5576,16.8669 19.3661,16.931 19.7196,16.7733 19.5576,16.8669 19.8207,16.6232 19.8947,16.4474 19.7196,16.7733 19.8207,16.6232 19.9564,16.2583 19.8947,16.4474 20.0124,16.06 20.0643,15.855 19.9564,16.2583 20.1158,15.6489 20.0124,16.06 20.0643,15.855 20.1745,15.451 20.1158,15.6489 20.2548,15.2756 20.3838,15.1506 20.1745,15.451 20.5235,15.0356 20.2548,15.2756 20.3838,15.1506 20.658,14.9146 20.5235,15.0356 20.7799,14.7811 20.658,14.9146 20.8574,14.603 20.912,14.4012 20.7799,14.7811 20.8574,14.603 20.9533,14.1857 20.912,14.4012 20.9857,13.961 21.0108,13.7292 20.9533,14.1857 21.0299,13.4916 20.9857,13.961 21.0108,13.7292 21.0438,13.2491 21.0299,13.4916 21.0531,13.0028 21.0596,12.7535 21.0438,13.2491 21.0638,12.502 21.0531,13.0028 21.0596,12.7535 21.0658,12.2494 21.0638,12.502 21.0663,11.9962 21.0657,11.743 21.0658,12.2494 21.0637,11.4902 21.0663,11.9962 21.0657,11.743 21.0595,11.2387 21.0637,11.4902 21.053,10.9894 21.0437,10.7431 21.0595,11.2387 21.0297,10.5007 21.053,10.9894 21.0437,10.7431 21.0105,10.2636 21.0297,10.5007 20.9852,10.0323 20.9525,9.80797 21.0105,10.2636 20.911,9.59293 20.9852,10.0323 20.9525,9.80797 20.8563,9.39192 20.911,9.59293 20.7788,9.21403 20.6571,9.08035 20.8563,9.39192 20.5228,8.95941 20.7788,9.21403 20.3833,8.84497 20.6571,9.08035 20.5228,8.95941 20.2542,8.72054 20.174,8.54515 20.3833,8.84497 20.1156,8.34717 20.2542,8.72054 20.174,8.54515 20.0647,8.14137 20.1156,8.34717 20.0137,7.93687 19.9585,7.73982 20.0647,8.14137 19.8978,7.55295 20.0137,7.93687 19.9585,7.73982 19.8263,7.3807 19.8978,7.55295 19.7298,7.23652 19.5753,7.15255 19.8263,7.3807 19.3949,7.10211 19.7298,7.23652 19.2029,7.07456 19.5753,7.15255 19.3949,7.10211 19.0059,7.06581 18.8071,7.07481 19.2029,7.07456 18.6099,7.10287 19.0059,7.06581 18.4219,7.15413 18.8071,7.07481 18.6099,7.10287 18.2567,7.239 18.4219,7.15413 18.1425,7.38339 18.0451,7.55417 18.2567,7.239 17.9512,7.73765 18.1425,7.38339 18.0451,7.55417 17.8578,7.93016 17.9512,7.73765 17.8918,8.16494 17.9131,8.40183 17.8578,7.93016 17.9232,8.63891 17.8918,8.16494 17.9131,8.40183 17.9226,8.87422 17.9232,8.63891 17.9108,9.10515 17.8857,9.3279 17.9226,8.87422 17.8426,9.53592 17.9108,9.10515 17.8857,9.3279 17.7716,9.71714 17.6505,9.84556 17.8426,9.53592 17.5165,9.96225 17.7716,9.71714 17.3807,10.0822 17.6505,9.84556 17.5165,9.96225 17.2544,10.2128 17.3807,10.0822 17.1735,10.3859 17.1128,10.5787 17.2544,10.2128 17.0598,10.7803 17.1735,10.3859 17.1128,10.5787 17.0083,10.9851 17.0598,10.7803 16.9564,11.191 16.9023,11.3952 17.0083,10.9851 16.8389,11.5911 16.9564,11.191 16.9023,11.3952 16.7538,11.7666 16.6213,11.8976 16.8389,11.5911 16.4764,12.019 16.7538,11.7666 16.3309,12.1402 16.6213,11.8976 16.4764,12.019 16.1929,12.2733 16.3309,12.1402 16.0916,12.4566 16.0029,12.6645 16.1929,12.2733 15.9158,12.886 16.0916,12.4566 16.0029,12.6645 15.823,13.1176"/>
	</g>
	<g fill="#002cff">
	<polygon points="11.0005,9.7516 10.7652,9.84377 11.0272,9.58486 11.0478,9.39272 11.0005,9.7516 11.0272,9.58486 11.0631,9.18424 11.0478,9.39272 11.0736,8.96386 11.0799,8.73475 11.0631,9.18424 11.0825,8.49885 11.0736,8.96386 11.0799,8.73475 11.0816,8.25838 11.0825,8.49885 11.0771,8.0154 11.0687,7.77244 11.0816,8.25838 11.0555,7.53102 11.0771,8.0154 11.0687,7.77244 11.0363,7.29293 11.0555,7.53102 11.0098,7.05965 10.9752,6.83285 11.0363,7.29293 10.9305,6.61533 11.0098,7.05965 10.9752,6.83285 10.8718,6.41231 10.9305,6.61533 10.7898,6.23424 10.6624,6.10385 10.8718,6.41231 10.52,5.98837 10.7898,6.23424 10.3699,5.88007 10.6624,6.10385 10.52,5.98837 10.2239,5.76791 10.1114,5.62188 10.3699,5.88007 10.003,5.47188 10.2239,5.76791 10.1114,5.62188 9.88847,5.33013 10.003,5.47188 9.75937,5.20374 9.58256,5.1228 9.88847,5.33013 9.38159,5.06645 9.75937,5.20374 9.16754,5.02585 9.58256,5.1228 9.38159,5.06645 8.94627,4.99766 8.72106,4.98076 9.16754,5.02585 8.49426,4.97518 8.94627,4.99766 8.26754,4.98094 8.72106,4.98076 8.49426,4.97518 8.04285,4.99811 7.82253,5.0267 8.26754,4.98094 7.60955,5.0676 8.04285,4.99811 7.40958,5.1242 7.82253,5.0267 7.60955,5.0676 7.23337,5.20516 7.40958,5.1242 7.10385,5.33159 6.98885,5.4734 7.23337,5.20516 6.88094,5.62347 7.10385,5.33159 6.98885,5.4734 6.76899,5.76942 6.62302,5.88138 6.88094,5.62347 6.47292,5.9893 6.76899,5.76942 6.3311,6.10428 6.62302,5.88138 6.47292,5.9893 6.20469,6.23379 6.3311,6.10428 6.12369,6.41002 6.06703,6.61002 6.20469,6.23379 6.02601,6.82302 6.12369,6.41002 6.06703,6.61002 5.9973,7.04331 6.02601,6.82302 5.97994,7.26779 5.97399,7.49437 5.9973,7.04331 5.97929,7.72119 5.97994,7.26779 5.97399,7.49437 5.99554,7.9464 5.97929,7.72119 6.02287,8.16754 6.06212,8.38142 5.99554,7.9464 6.11631,8.58198 6.02287,8.16754 6.06212,8.38142 6.19347,8.75825 6.11631,8.58198 6.31303,8.88723 6.4454,9.00195 6.19347,8.75825 6.31303,8.88723 6.58355,9.11018 6.4454,9.00195 6.71011,9.22367 6.58355,9.11018 6.7839,9.37527 6.83341,9.53693 6.71011,9.22367 6.87238,9.69414 6.7839,9.37527 6.83341,9.53693 6.90632,9.83852 6.87238,9.69414 7.16393,9.90476 7.42217,9.95526 6.90632,9.83852 7.16393,9.90476 7.68186,9.99435 7.42217,9.95526 7.94301,10.0239 7.68186,9.99435 8.2052,10.0455 8.46772,10.0597 7.94301,10.0239 8.2052,10.0455 8.73005,10.0674 8.46772,10.0597 8.99169,10.0689 8.73005,10.0674 9.25254,10.0641 9.51242,10.0525 8.99169,10.0689 9.25254,10.0641 9.77041,10.0328 9.51242,10.0525 10.0255,10.0036 9.77041,10.0328 10.2768,9.96356 10.5236,9.91146 10.0255,10.0036 10.2768,9.96356 10.7652,9.84377 10.5236,9.91146 11.0005,9.7516"/>
	</g>
</svg>
